#!OML:ASF F:\VICON\USERDATA\INSTALL\rory3\rory3.ASF
:FULLY-SPECIFIED
:DEGREES
66
root -0.7809199761644393 17.652512419812464 19.120929538450188 4.763780134088792 1.4206366648751476 0.8030642728537758
lfemur -3.7964745216134084 0.4278114362412373 -26.367835101094254
ltibia 44.96747730885416
lfoot 11.302726697289131 -14.501802132408969
ltoes -11.803520757535663
rfemur -25.143921913366256 3.9959364185819357 23.829759999216485
rtibia 38.812796733025664
rfoot 12.561716509208992 -7.848338385669028
rtoes 5.856565149672596
lowerback 16.422938228881467 -0.024128176267180335 -0.7938757125585069
upperback -0.11318424772528435 0.08086760310359598 1.9392484553710356
thorax -8.696662466610704 -0.3861739754557132 2.480459353458496
lowerneck -19.278980809662247 -4.320086772752974 -2.2029623791020683
upperneck 13.186415830194774 -5.33684371478904 4.024573837639625
head 7.3208201571337 -2.3357505593989045 1.0408604910602892
lclavicle 1.1101828033362532e-16 1.6567186209355802e-15
lhumerus -52.56592396080108 -7.981750548643376 91.29377833988198
lradius 111.96491767772358
lwrist 34.81001942265085
lhand -28.78095096328985 6.8099542977755245
lfingers 7.125019999999998
lthumb -2.078409573493274 37.023415469168775
rclavicle 1.1402068713671252e-16 1.6699928085589068e-15
rhumerus -52.46635051148964 9.749602318105328 -92.45462540551262
rradius 86.51482003921222
rwrist -18.395043336178936
rhand -18.42526501498174 41.656702477049365
rfingers 7.125019999999998
rthumb 7.77270686532922 11.693388325291613
67
root -0.8085222747450809 17.643756317687117 19.646234049316185 4.7943333565360415 1.1627112067213996 0.5124067331110702
lfemur -5.056316227001233 0.45476517608937206 -25.158557273746897
ltibia 47.84437576343258
lfoot 10.918651430779821 -14.243779068661944
ltoes -12.27562352024884
rfemur -24.71301693737744 4.129257393818748 24.252406746934675
rtibia 38.966423289855186
rfoot 12.826322778993001 -7.967536614507046
rtoes 7.640303456318776
lowerback 16.495721736625217 -0.008982878640479086 -0.3534777563438821
upperback -0.07253716702319774 0.41202640577971605 2.1209467190037192
thorax -8.717834802094453 -0.40758889522291963 2.4283299642959446
lowerneck -19.26193036102825 -4.326933871155654 -2.208597810741445
upperneck 13.166383736831042 -5.35858187737542 4.050626490780555
head 7.341846381821093 -2.2481305308542114 1.036862547179456
lclavicle 1.1101813170881886e-16 1.6567185392603773e-15
lhumerus -53.086814814903065 -7.936709706013673 91.54869471491041
lradius 110.09191318219177
lwrist 34.83839836581285
lhand -28.700118259342364 7.343935559047613
lfingers 7.125019999999998
lthumb -2.0731697723642006 37.40464268023988
rclavicle 1.1402067474166275e-16 1.6699927975786424e-15
rhumerus -50.3505486627128 10.838237939511679 -92.92613640072346
rradius 86.46844130498353
rwrist -18.353665593856846
rhand -18.412566409421988 41.67412142193629
rfingers 7.125019999999998
rthumb 7.74533129704333 11.708010682343081
68
root -0.8346101432189181 17.6434285574279 20.171510194529574 4.784842116741128 0.8604244531838167 0.1594830075808695
lfemur -7.648322183213049 1.25440445838262 -23.694994589199634
ltibia 53.32950909814714
lfoot 11.603553115547424 -14.26631556367029
ltoes -12.728328138138345
rfemur -23.918796200121847 4.464273276944137 24.780130841036275
rtibia 43.57787306648946
rfoot 13.3322585670404 -8.07248699041056
rtoes 8.683782702972858
lowerback 16.57069092192581 0.02763924902029291 0.10598823871750407
upperback -0.017799900333768937 0.8099606514049438 2.2191395592234318
thorax -8.761844863251826 -0.3908991945322773 2.3006668370641954
lowerneck -19.268741851965597 -4.304648949743459 -2.210611443621585
upperneck 13.238793834202182 -5.358204295221859 4.162137366429208
head 7.357574795304076 -2.1915959686783832 1.0372806188253783
lclavicle 1.1101824973740101e-16 1.656718665094903e-15
lhumerus -54.43129823166977 -8.181871453951063 91.67361486546679
lradius 108.45168477450657
lwrist 34.8925751996947
lhand -28.61728072944553 7.822943494171586
lfingers 7.125019999999998
lthumb -2.0628299747922045 37.734794631103625
rclavicle 1.14020684692265e-16 1.669992807071232e-15
rhumerus -47.63231729283165 12.03036309811643 -93.43558150634124
rradius 87.41396906380939
rwrist -18.489546731937157
rhand -18.401197258336573 41.695132612509326
rfingers 7.125019999999998
rthumb 7.724750564321979 11.729696380420128
69
root -0.8601435172304968 17.655211667163382 20.63642338437824 4.7429791593440465 0.5574108191265187 -0.2311098090594731
lfemur -11.140074992574393 2.2104917894881986 -22.161800298237203
ltibia 61.13142405317768
lfoot 11.225686765269113 -14.030887372310819
ltoes -12.914844796636633
rfemur -22.562880976060992 4.828493898186434 25.403166923131636
rtibia 48.679893440903314
rfoot 14.40891061152081 -8.092744001487663
rtoes 8.95701274606316
lowerback 16.635910448821523 0.08975471577451366 0.5455896388776718
upperback 0.05115130494803821 1.2810946512513604 2.2468518771403705
thorax -8.821679210865554 -0.33440400185397023 2.1043380167048356
lowerneck -19.28645828776209 -4.271093366253768 -2.211310874622461
upperneck 13.308843583202417 -5.416218510268514 4.23138975614113
head 7.374425470463402 -2.1722632811291818 1.0428539901606462
lclavicle 1.1101826001867322e-16 1.6567186169371013e-15
lhumerus -55.68201792972068 -8.313700448156526 91.8208225379784
lradius 106.99429045016515
lwrist 34.96320103586889
lhand -28.544093815952124 8.219462412370984
lfingers 7.125019999999998
lthumb -2.0503685868518007 38.00120897598829
rclavicle 1.1402063386352047e-16 1.6699927726652615e-15
rhumerus -45.205618168422 13.002933846863735 -93.88929989183536
rradius 89.09022487856626
rwrist -18.72789495048926
rhand -18.398063014018113 41.70312703959542
rfingers 7.125019999999998
rthumb 7.710013924232797 11.761165795595048
